<svg id="svg-dropdown" viewBox="0 0 17 16" fill="none" xmlns="http://www.w3.org/2000/svg">
<path d="M8.57346 8.90038L4.91646 5.24338C4.84991 5.17029 4.76936 5.1113 4.6796 5.0699C4.58984 5.02849 4.49268 5.00552 4.39388 5.00234C4.29508 4.99915 4.19664 5.01582 4.1044 5.05136C4.01216 5.0869 3.92798 5.14058 3.85686 5.20923C3.78573 5.27788 3.7291 5.3601 3.69032 5.45103C3.65154 5.54195 3.63139 5.63974 3.63108 5.73859C3.63076 5.83744 3.65028 5.93535 3.68848 6.02652C3.72668 6.11769 3.78278 6.20028 3.85346 6.26938L3.87146 6.28738L8.05046 10.4674C8.18905 10.6059 8.37699 10.6838 8.57296 10.6838C8.76893 10.6838 8.95688 10.6059 9.09546 10.4674L13.2745 6.28838C13.3443 6.22095 13.4001 6.14043 13.4388 6.05141C13.4775 5.9624 13.4982 5.86665 13.4999 5.76961C13.5016 5.67257 13.4841 5.57616 13.4485 5.48586C13.4129 5.39557 13.3599 5.31318 13.2925 5.24338C13.225 5.17358 13.1445 5.11775 13.0555 5.07907C12.9665 5.04039 12.8707 5.01963 12.7737 5.01795C12.6767 5.01628 12.5802 5.03374 12.4899 5.06933C12.3997 5.10492 12.3173 5.15795 12.2475 5.22538L12.2295 5.24338L8.57346 8.90038Z" fill="currentColor" stroke="currentColor" stroke-width="0.5"/>
</svg>