<svg id="svg-fix" viewBox="0 0 12 13" fill="none" xmlns="http://www.w3.org/2000/svg">
<path fill-rule="evenodd" clip-rule="evenodd" d="M11.8119 4.54763L8.37291 1.11975C8.08056 0.828344 7.61572 1.12849 7.47637 1.3859C7.45298 1.42961 7.49488 1.46943 7.45688 1.76569C7.41544 2.1419 7.32637 2.51135 7.19181 2.86526L5.66185 4.39027C5.05181 4.9993 4.17866 4.7283 3.43317 4.35918C3.27627 4.28148 3.07455 4.10955 2.90011 4.28342L2.25207 4.92936C2.20655 4.97488 2.18098 5.03653 2.18098 5.10081C2.18098 5.16508 2.20655 5.22673 2.25207 5.27225L7.68881 10.6904C7.73448 10.7358 7.79633 10.7613 7.86081 10.7613C7.92529 10.7613 7.98714 10.7358 8.03281 10.6904L8.67988 10.0445C8.85236 9.87254 8.63213 9.6501 8.54247 9.46166C8.21114 8.78172 7.91392 7.86671 8.46646 7.31596L10.0637 5.7317C10.426 5.62148 10.7956 5.53644 11.1697 5.4772C11.4708 5.42961 11.5079 5.46749 11.5508 5.43932C11.8139 5.26934 12.1062 4.84097 11.8119 4.54763ZM5.21163 8.97502L3.97304 7.74141L0 12.7497L0.187104 12.9352L5.21163 8.97502Z" fill="currentColor" stroke="currentColor" stroke-width="0.0867915" stroke-miterlimit="22.93"/>
</svg>