<svg viewBox="0 0 60 60" fill="none" xmlns="http://www.w3.org/2000/svg">
<rect width="60" height="60" rx="30" fill="url(#paint0_radial_1_21943)"/>
<path d="M27.1525 35.1705V34.8539C27.1606 33.3847 27.2986 32.2159 27.5665 31.3474C27.8424 30.4789 28.232 29.7808 28.7353 29.2532C29.2385 28.7175 29.8514 28.2265 30.5738 27.78C31.0689 27.4716 31.5113 27.1347 31.9009 26.7695C32.2986 26.3961 32.6111 25.9821 32.8384 25.5276C33.0656 25.0649 33.1793 24.5495 33.1793 23.9813C33.1793 23.3401 33.0291 22.7841 32.7288 22.3133C32.4285 21.8425 32.0226 21.4773 31.5113 21.2175C31.008 20.9578 30.4439 20.8279 29.8189 20.8279C29.2426 20.8279 28.6947 20.9537 28.1752 21.2054C27.6639 21.4489 27.2377 21.8222 26.8968 22.3255C26.564 22.8206 26.3773 23.4497 26.3367 24.2127H22.0023C22.0429 22.6705 22.4163 21.3799 23.1225 20.3409C23.8367 19.3019 24.7783 18.5227 25.9471 18.0032C27.1241 17.4838 28.4228 17.224 29.8432 17.224C31.3936 17.224 32.7572 17.4959 33.9342 18.0398C35.1192 18.5836 36.0405 19.3588 36.698 20.3653C37.3635 21.3636 37.6963 22.5487 37.6963 23.9205C37.6963 24.8458 37.5462 25.6737 37.2458 26.4042C36.9536 27.1347 36.5356 27.7841 35.9918 28.3523C35.448 28.9205 34.8027 29.4278 34.0559 29.8742C33.3984 30.28 32.8587 30.7021 32.4366 31.1404C32.0226 31.5787 31.7142 32.0942 31.5113 32.6867C31.3165 33.2711 31.215 33.9935 31.2069 34.8539V35.1705H27.1525ZM29.271 42.7679C28.5405 42.7679 27.9114 42.5081 27.3838 41.9886C26.8562 41.4692 26.5924 40.836 26.5924 40.0893C26.5924 39.3588 26.8562 38.7338 27.3838 38.2143C27.9114 37.6948 28.5405 37.4351 29.271 37.4351C29.9934 37.4351 30.6184 37.6948 31.146 38.2143C31.6817 38.7338 31.9496 39.3588 31.9496 40.0893C31.9496 40.5844 31.8238 41.0349 31.5721 41.4407C31.3286 41.8466 31.004 42.1713 30.5981 42.4148C30.2004 42.6502 29.758 42.7679 29.271 42.7679Z" fill="white"/>
<defs>
<radialGradient id="paint0_radial_1_21943" cx="0" cy="0" r="1" gradientUnits="userSpaceOnUse" gradientTransform="translate(30 30) rotate(90) scale(30)">
<stop stop-color="#C79BFC"/>
<stop offset="1" stop-color="#7F56D9"/>
</radialGradient>
</defs>
</svg>
