<svg id="svg-remove" viewBox="0 0 17 17" fill="none" xmlns="http://www.w3.org/2000/svg">
<path d="M14.0976 4.01438C11.8621 3.79284 9.61311 3.67871 7.37087 3.67871C6.04164 3.67871 4.71241 3.74584 3.38318 3.88011L2.01367 4.01438" stroke="currentColor" stroke-width="1.33333" stroke-linecap="round" stroke-linejoin="round"/>
<path d="M5.70605 3.33662L5.85375 2.45718C5.96116 1.81942 6.04172 1.34277 7.17626 1.34277H8.93515C10.0697 1.34277 10.157 1.84627 10.2577 2.46389L10.4054 3.33662" stroke="currentColor" stroke-width="1.33333" stroke-linecap="round" stroke-linejoin="round"/>
<path d="M12.6552 6.13672L12.2188 12.897C12.145 13.951 12.0846 14.77 10.2116 14.77H5.90164C4.02864 14.77 3.96822 13.951 3.89437 12.897L3.45801 6.13672" stroke="currentColor" stroke-width="1.33333" stroke-linecap="round" stroke-linejoin="round"/>
<path d="M6.93457 11.0771H9.17009" stroke="currentColor" stroke-width="1.33333" stroke-linecap="round" stroke-linejoin="round"/>
<path d="M6.37793 8.3916H9.73457" stroke="currentColor" stroke-width="1.33333" stroke-linecap="round" stroke-linejoin="round"/>
</svg>