<svg id="svg-rating" viewBox="0 0 12 13" fill="none" xmlns="http://www.w3.org/2000/svg">
<path fill-rule="evenodd" clip-rule="evenodd" d="M5.6603 1.09208L4.1138 4.42395L0.416303 4.9002C0.345036 4.90927 0.277872 4.93861 0.222803 4.98475C0.167733 5.03088 0.127074 5.09187 0.105664 5.16044C0.0842532 5.22902 0.0829919 5.3023 0.10203 5.37158C0.121068 5.44085 0.159603 5.5032 0.213053 5.5512L2.94793 8.01308L2.21105 11.7076C2.19687 11.7784 2.20343 11.8518 2.22995 11.9189C2.25647 11.9861 2.30182 12.0442 2.36055 12.0862C2.41928 12.1282 2.48889 12.1524 2.56103 12.1558C2.63316 12.1592 2.70474 12.1417 2.76718 12.1054L6.00005 10.2316L9.23443 12.1054C9.29683 12.1416 9.36832 12.159 9.44034 12.1555C9.51236 12.152 9.58186 12.1279 9.64051 12.0859C9.69915 12.044 9.74446 11.986 9.77101 11.919C9.79756 11.8519 9.80421 11.7787 9.79018 11.708L9.0533 8.01308L11.7882 5.5512C11.8415 5.5032 11.8799 5.44091 11.8989 5.37172C11.9179 5.30253 11.9166 5.22935 11.8953 5.16086C11.8739 5.09237 11.8334 5.03144 11.7784 4.9853C11.7235 4.93917 11.6565 4.90976 11.5853 4.90058L7.8878 4.42395L6.34018 1.09208C6.31007 1.02724 6.26206 0.972353 6.2018 0.933894C6.14154 0.895434 6.07154 0.875 6.00005 0.875C5.92856 0.875 5.85857 0.895434 5.79831 0.933894C5.73805 0.972353 5.69003 1.02724 5.65993 1.09208H5.6603Z" fill="currentColor"/>
</svg>