<svg id="svg-wand-and-rays" viewBox="0 0 30 30" fill="currentColor" xmlns="http://www.w3.org/2000/svg">
<path d="M15.9512 5.17512C15.9512 4.65719 15.5086 4.2146 14.9907 4.2146C14.4727 4.2146 14.0396 4.65719 14.0396 5.17512V8.06609C14.0396 8.58402 14.4727 9.01719 14.9907 9.01719C15.5086 9.01719 15.9512 8.58402 15.9512 8.06609V5.17512ZM18.9363 9.30912C18.5691 9.67637 18.5785 10.2885 18.9457 10.6557C19.3036 11.023 19.9251 11.023 20.2923 10.6557L22.3075 8.6311C22.6748 8.27326 22.6748 7.64233 22.3075 7.27508C21.9403 6.91724 21.3282 6.91724 20.9609 7.28449L18.9363 9.30912ZM9.68896 10.6557C10.0468 11.0136 10.6683 11.023 11.0356 10.6557C11.4028 10.2885 11.4028 9.67637 11.0356 9.30912L9.02979 7.29391C8.67194 6.92665 8.05043 6.91724 7.68318 7.27508C7.31592 7.64233 7.31592 8.26385 7.68318 8.62169L9.68896 10.6557ZM22.4865 23.8864C22.9479 24.3572 23.7389 24.3478 24.1909 23.8864C24.6523 23.4061 24.6429 22.6528 24.1909 22.182L15.2449 13.1889C14.7835 12.7274 13.9925 12.7274 13.5405 13.1889C13.079 13.6691 13.0884 14.4319 13.5405 14.8933L22.4865 23.8864ZM5.5738 13.6409C5.04646 13.6409 4.61328 14.074 4.61328 14.592C4.61328 15.1099 5.04646 15.5525 5.5738 15.5525H8.46477C8.9827 15.5525 9.42529 15.1099 9.42529 14.592C9.42529 14.074 8.9827 13.6409 8.46477 13.6409H5.5738ZM24.4169 15.5525C24.9348 15.5525 25.3774 15.1099 25.3774 14.592C25.3774 14.074 24.9348 13.6409 24.4169 13.6409H21.5259C21.008 13.6409 20.5654 14.074 20.5654 14.592C20.5654 15.1099 21.008 15.5525 21.5259 15.5525H24.4169ZM17.1754 17.3605L14.3409 14.5261C14.1526 14.3283 14.0772 14.1023 14.275 13.914C14.4445 13.7445 14.6799 13.7915 14.8871 13.9893L17.7121 16.8238L17.1754 17.3605ZM7.67376 20.5434C7.3065 20.9107 7.3065 21.5228 7.65492 21.89C8.02218 22.2573 8.65311 22.2667 9.01095 21.9089L11.0356 19.8937C11.4028 19.5264 11.4028 18.9049 11.0356 18.547C10.6777 18.1798 10.0562 18.1704 9.68896 18.5376L7.67376 20.5434ZM15.9512 21.1273C15.9512 20.6093 15.5086 20.1667 14.9907 20.1667C14.4727 20.1667 14.0396 20.6093 14.0396 21.1273V24.0182C14.0396 24.5362 14.4727 24.9788 14.9907 24.9788C15.5086 24.9788 15.9512 24.5362 15.9512 24.0182V21.1273Z"/>
</svg>