<svg width="1295" height="291" viewBox="0 0 1295 291" fill="none" xmlns="http://www.w3.org/2000/svg">
<path d="M107 91.0005C108.892 103.11 112.12 115.583 119.889 125.445C137.432 147.714 165.753 163.779 189.667 178.001C206.36 187.928 220.671 192.19 239.444 195.445C257.681 198.607 276.097 201.973 294.556 203.556C316.516 205.44 338.762 205.063 360.778 205.001C388.802 204.921 416.865 204.234 444.778 201.556C473.557 198.795 501.782 192.753 530.333 188.445C570.357 182.406 610.937 178.665 651.444 178.778C661.533 178.807 688.16 179.603 699.444 182.334C707.032 184.17 715.72 188.051 717.667 196.778C721.985 216.133 702.474 230.187 686.889 234.889C671.195 239.625 653.477 240.152 637.222 239.556C617.931 238.849 601.156 235.22 585.778 223.112C574.238 214.026 575.023 200.161 582.389 188.278C589.855 176.234 601.96 166.817 613.889 159.556C634.356 147.098 656.782 137.128 679.167 128.667C699.218 121.088 720.812 117.361 741.722 112.945C760.392 109.002 778.769 103.331 797.889 102.056C820.084 100.576 842.971 101.411 864.889 105.223C893.219 110.15 921.113 113.14 949.944 114.334C977.474 115.474 1006.34 117.63 1032.56 107.667C1060.62 97.0028 1088.76 89.7001 1118.44 84.7783C1140.58 81.1078 1161.79 80.4053 1184 83.5561C1207.62 86.9075 1270.71 123.604 1294 128.667" stroke="#CBAAFF" stroke-width="2" stroke-linecap="round" stroke-dasharray="8 8"/>
</svg>
