<svg width="94" height="70" viewBox="0 0 94 70" fill="none" xmlns="http://www.w3.org/2000/svg">
<g clip-path="url(#clip0_1_3032)">
<path d="M47.4713 24.2686C45.7948 24.0536 44.4661 22.7791 44.0472 21.1417C41.9455 12.9257 37.0122 3.97692 26.2428 2.59588L26.1245 3.51875L25.9692 4.21437C25.8252 4.8591 25.0248 5.14674 24.445 4.7621L23.174 3.91887C22.5435 3.50066 21.6792 3.88049 21.6309 4.59701L21.5338 6.04155C21.4894 6.70043 20.7427 7.09273 20.1118 6.78853L18.7288 6.1216C18.0427 5.79083 17.247 6.28311 17.308 7.00047L17.4312 8.44672C17.4874 9.1064 16.8095 9.59534 16.1404 9.37775L14.6736 8.90068C13.946 8.66408 13.2348 9.25881 13.404 9.96242L13.7451 11.3809C13.9006 12.028 13.3054 12.6036 12.6117 12.477L11.0909 12.1996C10.3365 12.062 9.72455 12.747 9.99836 13.4225L10.5504 14.7844C10.8021 15.4056 10.3017 16.0562 9.59753 16.0233L8.05367 15.9511C7.28792 15.9153 6.78754 16.6767 7.16043 17.3104L7.91206 18.5879C8.25494 19.1707 7.85963 19.883 7.15923 19.9444L5.62379 20.0789C4.86219 20.1456 4.48367 20.9679 4.94796 21.5469L5.88399 22.7141C6.31102 23.2465 6.02873 24.0061 5.34637 24.1604L3.8507 24.4989C3.10874 24.6668 2.85966 25.5332 3.40602 26.0457L4.50748 27.0788C5.00979 27.55 4.8463 28.3414 4.19598 28.5856L2.77037 29.1212C2.06325 29.3869 1.94875 30.2798 2.56595 30.7153L3.8103 31.5932C4.37793 31.9937 4.33646 32.8007 3.7315 33.1299L2.405 33.8517C1.74702 34.2097 1.76943 35.1109 2.44501 35.4606L3.80687 36.1655C4.4282 36.4871 4.5097 37.2933 3.96214 37.7007L2.76189 38.594C2.16654 39.037 2.32532 39.9282 3.04545 40.185L4.49727 40.7025C5.15952 40.9387 5.3623 41.7277 4.88346 42.2051L3.8338 43.2517C3.31307 43.7707 3.60515 44.6337 4.35516 44.7923L5.86728 45.112C6.55702 45.2578 6.87702 46.0137 6.47668 46.5512L5.5989 47.7298C5.16349 48.3143 5.58281 49.1316 6.34755 49.1888L7.88911 49.3041C8.5923 49.3567 9.02298 50.0639 8.70923 50.6507L8.02127 51.9373C7.67997 52.5754 8.21806 53.3303 8.98188 53.2849L10.5216 53.1935C11.224 53.1518 11.7566 53.7959 11.5357 54.4201L11.0516 55.7884C10.8115 56.4672 11.4573 57.1443 12.2046 56.9974L13.7112 56.701C14.3984 56.5658 15.0219 57.1338 14.8986 57.7826L14.6282 59.2049C14.4941 59.9104 15.2345 60.496 15.9502 60.2505L17.3929 59.7552C18.051 59.5293 18.7529 60.0096 18.7296 60.6698L18.7043 61.3821L18.6111 62.1085L18.6783 62.117C29.4273 63.4403 37.6854 55.7721 42.0339 48.3086C42.8847 46.8482 44.4899 45.9484 46.1663 46.1634C47.8428 46.3784 49.1724 47.6524 49.5868 49.2909C51.6821 57.577 56.5984 66.9247 67.3273 68.3556L67.3944 68.3644L67.4876 67.6379L67.6428 66.9423C67.7868 66.2976 68.5872 66.01 69.1671 66.3946L70.4381 67.2378C71.0686 67.6561 71.9328 67.2762 71.9811 66.5597L72.0783 65.1152C72.1227 64.4563 72.8693 64.064 73.5003 64.3682L74.8833 65.0351C75.5693 65.3659 76.3651 64.8736 76.304 64.1562L76.1809 62.71C76.1246 62.0503 76.8025 61.5614 77.4717 61.7789L78.9385 62.256C79.6661 62.4926 80.3773 61.8979 80.2081 61.1943L79.867 59.7758C79.7115 59.1287 80.3066 58.5531 81.0004 58.6797L82.5211 58.9571C83.2755 59.0947 83.8875 58.4097 83.6137 57.7342L83.0617 56.3723C82.81 55.7511 83.3103 55.1005 84.0145 55.1334L85.5584 55.2056C86.3241 55.2414 86.8245 54.48 86.4516 53.8463L85.7 52.5688C85.3571 51.986 85.7524 51.2737 86.4528 51.2123L87.9883 51.0778C88.7499 51.0111 89.1284 50.1888 88.6641 49.6098L87.7281 48.4426C87.301 47.9102 87.5833 47.1506 88.2657 46.9963L89.7614 46.6578C90.5033 46.4899 90.7524 45.6235 90.206 45.111L89.1046 44.0779C88.6023 43.6067 88.7658 42.8153 89.4161 42.5711L90.8417 42.0355C91.5488 41.7698 91.6633 40.8769 91.0461 40.4414L89.8018 39.5635C89.2341 39.163 89.2756 38.356 89.8806 38.0268L91.2071 37.305C91.865 36.947 91.8426 36.0458 91.1671 35.6962L89.8052 34.9912C89.1839 34.6696 89.1024 33.8634 89.6499 33.456L90.8502 32.5627C91.4455 32.1197 91.2867 31.2285 90.5666 30.9717L89.1148 30.4542C88.4525 30.2181 88.2498 29.429 88.7286 28.9516L89.7783 27.9051C90.299 27.386 90.0069 26.523 89.2569 26.3644L87.7448 26.0447C87.055 25.8989 86.7351 25.143 87.1354 24.6055L88.0132 23.4269C88.4486 22.8424 88.0293 22.0251 87.2645 21.9679L85.723 21.8526C85.0198 21.8 84.5891 21.0929 84.9028 20.506L85.5908 19.2194C85.9321 18.5813 85.3939 17.8264 84.6302 17.8718L83.0905 17.9632C82.3881 18.0049 81.8555 17.3608 82.0764 16.7366L82.5604 15.3683C82.8006 14.6895 82.1548 14.0124 81.4074 14.1593L79.9009 14.4557C79.2136 14.5909 78.5901 14.0229 78.7134 13.3741L78.9839 11.9518C79.1179 11.2463 78.3775 10.6607 77.6619 10.9063L76.2192 11.4015C75.5611 11.6274 74.8592 11.1471 74.8825 10.4869L74.9078 9.77458L75.0261 8.85172C64.2499 7.4698 55.9695 14.7347 51.6103 22.1268C50.7517 23.5826 49.1477 24.4835 47.4713 24.2686Z" fill="#32BD60"/>
</g>
<defs>
<clipPath id="clip0_1_3032">
<rect width="94" height="70" fill="white"/>
</clipPath>
</defs>
</svg>
