<svg width="97" height="70" viewBox="0 0 97 70" fill="none" xmlns="http://www.w3.org/2000/svg">
<g clip-path="url(#clip0_1_3041)">
<path fill-rule="evenodd" clip-rule="evenodd" d="M1.52444 51.5331C-2.63119 40.1156 3.23212 27.4996 14.6205 23.3546L66.4091 4.50512C77.7975 0.360085 90.3984 6.25559 94.554 17.6731C98.7096 29.0906 92.8463 41.7066 81.4579 45.8516L29.6694 64.7011C18.281 68.8461 5.68008 62.9506 1.52444 51.5331ZM19.1924 35.9159C14.7238 37.5424 12.4231 42.4927 14.0537 46.9728C15.6843 51.4529 20.6288 53.7663 25.0975 52.1398L76.886 33.2903C81.3547 31.6639 83.6554 26.7135 82.0248 22.2334C80.3942 17.7533 75.4497 15.4399 70.981 17.0664L19.1924 35.9159Z" fill="#32BD60"/>
</g>
<defs>
<clipPath id="clip0_1_3041">
<rect width="97" height="70" fill="white"/>
</clipPath>
</defs>
</svg>
