<svg width="108" height="82" viewBox="0 0 108 82" fill="none" xmlns="http://www.w3.org/2000/svg">
<g clip-path="url(#clip0_1_3034)">
<path d="M59.0533 6.47454L44.5238 13.1519L46.6483 17.7747C47.2215 19.0219 46.9699 20.4928 46.0149 21.4777L43.9441 23.6134C39.1692 28.5379 37.9111 35.8929 40.777 42.1288L58.4138 80.5052L101.12 60.8787L83.483 22.5023C80.6171 16.2664 74.2164 12.4312 67.3697 12.8476L64.4004 13.0283C63.0311 13.1115 61.7509 12.3445 61.1778 11.0973L59.0533 6.47454Z" fill="#5584FD"/>
<path d="M24.6398 37.5142C16.9574 40.9946 8.32772 38.5144 5.3649 31.9746C2.40209 25.4347 6.22807 17.3117 13.9105 13.8312C21.5929 10.3508 41.8002 15.4679 41.8002 15.4679C41.8002 15.4679 32.3222 34.0337 24.6398 37.5142Z" fill="#99D4FF"/>
</g>
<defs>
<clipPath id="clip0_1_3034">
<rect width="108" height="82" fill="white"/>
</clipPath>
</defs>
</svg>
